<?xml version="1.0" encoding="UTF-8" standalone="no"?>
<svg xmlns:dc="http://purl.org/dc/elements/1.1/" xmlns:cc="http://creativecommons.org/ns#" xmlns:rdf="http://www.w3.org/1999/02/22-rdf-syntax-ns#" xmlns:svg="http://www.w3.org/2000/svg" xmlns="http://www.w3.org/2000/svg" xmlns:sodipodi="http://sodipodi.sourceforge.net/DTD/sodipodi-0.dtd" xmlns:inkscape="http://www.inkscape.org/namespaces/inkscape" id="svg2" xml:space="preserve" height="268.67599" width="1000" version="1.1" viewBox="0 0 999.99755 268.67481">
  <defs id="defs4171"/>
  <metadata id="metadata8"/>
  <path id="path14" d="m 665.34443,-0.0011656 -42.11377,0 0,235.5057356 c 38.27198,1.31687 76.38577,3.24806 114.33999,5.77796 l 0,-41.49257 c -24.00949,-1.60177 -48.08717,-2.95942 -72.22622,-4.0825 z m 334.65312,0.0232 -46.25287,0 -30.48066,70.6714896 -27.41214,-70.6714896 -45.55734,0 48.95999,126.2867756 -53.46049,123.8865 c 14.78346,1.44214 29.53283,2.9809 44.26174,4.60729 l 31.08073,-72.03529 30.78751,79.40656 c 16.03815,2.06191 32.02857,4.21281 47.99852,6.49129 l 0.0614,-0.0269 -54.82427,-141.47937 z M 478.69641,233.44799 l 42.11241,-0.01 0,-95.79929 57.08407,0 0,-41.492576 -57.08407,0 0,-54.25967 75.44475,0 0,-41.8655596 -117.55853,0 z M 321.44483,41.890324 l 44.07081,0 0,194.026126 c 14.01292,-0.52874 28.05448,-0.96474 42.11105,-1.33263 l 0,-192.696426 44.07217,0 0,-41.8682896 -130.25539,0 z M 177.47655,247.97913 c 38.81204,-3.52661 77.80411,-6.43319 116.9721,-8.68937 l 0,-41.49666 c -25.02551,1.44562 -49.98283,3.15785 -74.86514,5.11489 l 0,-62.81881 c 16.32658,-0.16297 37.82397,-0.66075 56.86859,-0.42413 l 0,-41.495986 c -15.21442,-0.0368 -39.66918,0.21275 -56.86859,0.433 l 0,-56.7104 74.86514,0 0,-41.8655596 -116.9721,0 z M 94.865093,152.05711 40.021723,0.0220144 0,0.0220144 0,268.67462 c 14.010194,-1.994 28.0463,-3.90385 42.111046,-5.73562 l 0,-146.09579 48.764967,140.09513 c 15.339207,-1.77907 30.705007,-3.46409 46.100127,-5.04786 l 0,-251.8711956 -42.113774,0 z m 677.448047,91.72838 c 14.06066,1.07582 28.09404,2.22999 42.11378,3.47793 l 0,-247.2411356 -42.11378,0 0,243.7634756" style="fill:#db202c"/>
</svg>
